<svg width="36" height="35" viewBox="0 0 36 35" fill="none" xmlns="http://www.w3.org/2000/svg">
<path d="M28.709 8.19863L29.5342 7.6338V7.6338L28.709 8.19863ZM28.709 23.0196L27.8838 22.4548L28.709 23.0196ZM27.1047 24.5856L26.5584 23.748H26.5584L27.1047 24.5856ZM20.9671 25.5403L20.9629 24.5403C20.4123 24.5426 19.9671 24.9897 19.9671 25.5403H20.9671ZM20.9671 25.5422L21.8572 25.9981C21.9295 25.857 21.9671 25.7007 21.9671 25.5422H20.9671ZM18.9499 29.4806L18.0599 29.0247L18.9499 29.4806ZM17.1699 29.4806L18.0599 29.0247H18.0599L17.1699 29.4806ZM15.1526 25.5422H14.1526C14.1526 25.7007 14.1903 25.857 14.2626 25.9981L15.1526 25.5422ZM15.1526 25.5403H16.1526C16.1526 24.9897 15.7075 24.5426 15.1569 24.5403L15.1526 25.5403ZM9.01504 24.5856L9.56137 23.748H9.56137L9.01504 24.5856ZM7.41083 23.0196L8.23603 22.4548H8.23603L7.41083 23.0196ZM7.41083 8.19863L8.23603 8.76346L7.41083 8.19863ZM9.01504 6.63261L9.56137 7.47019V7.47019L9.01504 6.63261ZM27.1047 6.63261L26.5584 7.47019V7.47019L27.1047 6.63261ZM30.6889 15.6091C30.6889 13.6375 30.6901 12.0817 30.561 10.8424C30.43 9.58514 30.1562 8.54262 29.5342 7.6338L27.8838 8.76347C28.2416 9.28628 28.4578 9.95605 28.5718 11.0497C28.6876 12.1613 28.6889 13.5949 28.6889 15.6091H30.6889ZM29.5342 23.5844C30.1562 22.6756 30.43 21.6331 30.561 20.3759C30.6901 19.1366 30.6889 17.5808 30.6889 15.6091H28.6889C28.6889 17.6234 28.6876 19.057 28.5718 20.1686C28.4578 21.2622 28.2416 21.932 27.8838 22.4548L29.5342 23.5844ZM27.6511 25.4232C28.3949 24.938 29.0351 24.3136 29.5342 23.5844L27.8838 22.4548C27.5344 22.9652 27.0844 23.405 26.5584 23.748L27.6511 25.4232ZM20.9714 26.5403C22.535 26.5336 23.8103 26.5047 24.8654 26.3623C25.9357 26.2179 26.8442 25.9495 27.6511 25.4232L26.5584 23.748C26.0841 24.0574 25.4921 24.2596 24.598 24.3803C23.6887 24.503 22.5358 24.5336 20.9629 24.5403L20.9714 26.5403ZM21.9671 25.5422V25.5403H19.9671V25.5422H21.9671ZM19.84 29.9364L21.8572 25.9981L20.0771 25.0863L18.0599 29.0247L19.84 29.9364ZM16.2798 29.9364C17.023 31.3874 19.0968 31.3874 19.84 29.9364L18.0599 29.0247H18.0599L16.2798 29.9364ZM14.2626 25.9981L16.2798 29.9364L18.0599 29.0247L16.0427 25.0863L14.2626 25.9981ZM14.1526 25.5403V25.5422H16.1526V25.5403H14.1526ZM8.46872 25.4232C9.27554 25.9495 10.1841 26.2179 11.2544 26.3623C12.3095 26.5047 13.5848 26.5336 15.1484 26.5403L15.1569 24.5403C13.584 24.5336 12.431 24.503 11.5218 24.3803C10.6277 24.2596 10.0357 24.0574 9.56137 23.748L8.46872 25.4232ZM6.58562 23.5844C7.0847 24.3136 7.72492 24.938 8.46872 25.4232L9.56137 23.748C9.0354 23.405 8.58539 22.9652 8.23603 22.4548L6.58562 23.5844ZM5.43091 15.6091C5.43091 17.5808 5.42964 19.1366 5.55878 20.3759C5.6898 21.6331 5.96356 22.6756 6.58562 23.5844L8.23603 22.4548C7.87818 21.932 7.66198 21.2622 7.54801 20.1686C7.43218 19.057 7.43091 17.6234 7.43091 15.6091H5.43091ZM6.58562 7.6338C5.96355 8.54262 5.6898 9.58514 5.55878 10.8424C5.42964 12.0817 5.43091 13.6375 5.43091 15.6091H7.43091C7.43091 13.5949 7.43218 12.1613 7.54801 11.0497C7.66198 9.95605 7.87818 9.28628 8.23603 8.76346L6.58562 7.6338ZM8.46872 5.79504C7.72492 6.2802 7.0847 6.90466 6.58562 7.6338L8.23603 8.76346C8.58539 8.25306 9.0354 7.81326 9.56137 7.47019L8.46872 5.79504ZM16.6063 4.67603C14.585 4.67603 12.9956 4.67487 11.7306 4.80049C10.4501 4.92766 9.39227 5.19263 8.46872 5.79504L9.56137 7.47019C10.1044 7.116 10.8006 6.90269 11.9283 6.7907C13.0715 6.67718 14.5444 6.67603 16.6063 6.67603V4.67603ZM19.5135 4.67603H16.6063V6.67603H19.5135V4.67603ZM27.6511 5.79504C26.7275 5.19263 25.6697 4.92766 24.3892 4.80049C23.1242 4.67487 21.5348 4.67603 19.5135 4.67603V6.67603C21.5754 6.67603 23.0483 6.67718 24.1915 6.7907C25.3192 6.90269 26.0154 7.116 26.5584 7.47019L27.6511 5.79504ZM29.5342 7.6338C29.0351 6.90466 28.3949 6.2802 27.6511 5.79504L26.5584 7.47019C27.0844 7.81326 27.5344 8.25306 27.8838 8.76347L29.5342 7.6338Z" fill="#2E4851"/>
<ellipse cx="23.8744" cy="15.6092" rx="1.45362" ry="1.41901" fill="#2E4851" stroke="#2E4851" stroke-linecap="round"/>
<ellipse cx="18.0599" cy="15.6092" rx="1.45362" ry="1.41901" fill="#2E4851" stroke="#2E4851" stroke-linecap="round"/>
<ellipse cx="12.2455" cy="15.6092" rx="1.45362" ry="1.41901" fill="#2E4851" stroke="#2E4851" stroke-linecap="round"/>
</svg>
