<svg width="33" height="33" viewBox="0 0 33 33" fill="none" xmlns="http://www.w3.org/2000/svg">
<path d="M6.69641 17.0887C6.69641 15.2703 6.69641 14.3611 7.06399 13.5619C7.43158 12.7627 8.1219 12.171 9.50255 10.9876L10.8418 9.83962C13.3374 7.70061 14.5851 6.6311 16.0714 6.6311C17.5577 6.6311 18.8055 7.70061 21.301 9.83962L22.6403 10.9876C24.0209 12.171 24.7112 12.7627 25.0788 13.5619C25.4464 14.3611 25.4464 15.2703 25.4464 17.0887V22.7678C25.4464 25.2932 25.4464 26.5559 24.6619 27.3405C23.8773 28.125 22.6147 28.125 20.0893 28.125H12.0536C9.52817 28.125 8.26548 28.125 7.48095 27.3405C6.69641 26.5559 6.69641 25.2932 6.69641 22.7678V17.0887Z" stroke="#2E4851" stroke-width="2" />
<path d="M19.4196 28.1249V21.0892C19.4196 20.5369 18.9719 20.0892 18.4196 20.0892H13.7232C13.1709 20.0892 12.7232 20.5369 12.7232 21.0892V28.1249" stroke="#2E4851" stroke-width="2" stroke-linecap="round" stroke-linejoin="round" />
</svg>
