<svg width="20" height="21" viewBox="0 0 20 21" fill="none" xmlns="http://www.w3.org/2000/svg">
<path d="M16.3485 9.60138H3.67607C2.67624 9.60138 1.86572 10.4119 1.86572 11.4117V17.748C1.86572 18.7478 2.67624 19.5583 3.67607 19.5583H16.3485C17.3484 19.5583 18.1589 18.7478 18.1589 17.748V11.4117C18.1589 10.4119 17.3484 9.60138 16.3485 9.60138Z" stroke="black" stroke-width="2.5" stroke-linecap="round" stroke-linejoin="round"/>
<path d="M5.48645 9.60138V5.98068C5.48645 4.78034 5.96328 3.62917 6.81205 2.7804C7.66081 1.93164 8.81199 1.4548 10.0123 1.4548C11.2127 1.4548 12.3638 1.93164 13.2126 2.7804C14.0614 3.62917 14.5382 4.78034 14.5382 5.98068V9.60138" stroke="black" stroke-width="2.5" stroke-linecap="round" stroke-linejoin="round"/>
</svg>
