<svg width="24" height="24" viewBox="0 0 24 24" fill="none" xmlns="http://www.w3.org/2000/svg">
<path fill-rule="evenodd" clip-rule="evenodd" d="M9.93929 12.6464L7.69205 11.8973L7.69205 11.8973L7.69204 11.8973C5.33883 11.1129 4.16223 10.7207 4.16223 9.99997C4.16223 9.27921 5.33884 8.88701 7.69205 8.10261L16.2052 5.26488C17.861 4.71295 18.6889 4.43699 19.1259 4.87401C19.5629 5.31102 19.287 6.13892 18.735 7.79471L15.8973 16.3079L15.8973 16.3079L15.8973 16.3079C15.1129 18.6611 14.7207 19.8377 14 19.8377C13.2792 19.8377 12.887 18.6611 12.1026 16.3079L11.3535 14.0606L15.7071 9.70708C16.0976 9.31656 16.0976 8.68339 15.7071 8.29287C15.3165 7.90234 14.6834 7.90234 14.2928 8.29287L9.93929 12.6464Z" fill="#7E7E7E"/>
</svg>
