<svg width="8" height="8" viewBox="0 0 8 8" fill="none" xmlns="http://www.w3.org/2000/svg">
<path d="M3.57084 0.278289L2.5944 2.34678L0.409726 2.67955C0.017951 2.73892 -0.139058 3.24355 0.145054 3.53257L1.72561 5.14175L1.35178 7.41491C1.28449 7.82579 1.6987 8.13357 2.04561 7.9414L4 6.8681L5.95439 7.9414C6.30131 8.132 6.71551 7.82579 6.64822 7.41491L6.27439 5.14175L7.85495 3.53257C8.13906 3.24355 7.98205 2.73892 7.59027 2.67955L5.40561 2.34678L4.42916 0.278289C4.25421 -0.0904157 3.74729 -0.0951027 3.57084 0.278289Z" fill="#FFC839"/>
<path d="M2.63204 2.59393L2.76364 2.57389L2.82047 2.4535L3.79687 0.385102C3.79689 0.385073 3.7969 0.385045 3.79692 0.385016C3.88182 0.205494 4.11723 0.204411 4.20321 0.38528C4.20324 0.38534 4.20327 0.385401 4.2033 0.385462L5.17953 2.4535L5.23636 2.57389L5.36796 2.59393L7.55263 2.9267L7.55282 2.92673C7.72797 2.95327 7.82839 3.20297 7.67666 3.35732L7.67659 3.35739L6.09603 4.96657L6.00711 5.0571L6.0277 5.18232L6.40151 7.45531C6.40151 7.45532 6.40151 7.45534 6.40151 7.45535C6.43869 7.68252 6.21969 7.80191 6.07477 7.7223L6.07473 7.72227L4.12034 6.64897L4 6.58288L3.87966 6.64897L1.92527 7.72227L1.92447 7.72271C1.78135 7.80199 1.56112 7.68425 1.59847 7.45547C1.59848 7.45542 1.59848 7.45536 1.59849 7.45531L1.9723 5.18232L1.99289 5.0571L1.90397 4.96657L0.323409 3.35739L0.32334 3.35732C0.171612 3.20297 0.272031 2.95327 0.447182 2.92673L0.447372 2.9267L2.63204 2.59393Z" stroke="black" stroke-opacity="0.34" stroke-width="0.5"/>
</svg>
