<svg width="294" height="48" viewBox="0 0 294 48" fill="none" xmlns="http://www.w3.org/2000/svg">
<rect width="294" height="48" rx="20" fill="black"/>
<path d="M121.09 23.538H118.832C118.768 23.1677 118.649 22.8397 118.476 22.554C118.303 22.2642 118.087 22.0187 117.83 21.8175C117.572 21.6162 117.278 21.4653 116.948 21.3647C116.622 21.2601 116.27 21.2077 115.892 21.2077C115.22 21.2077 114.624 21.3768 114.105 21.7148C113.586 22.0489 113.179 22.5399 112.886 23.1878C112.592 23.8318 112.445 24.6186 112.445 25.5483C112.445 26.4941 112.592 27.2909 112.886 27.9389C113.183 28.5828 113.59 29.0698 114.105 29.3998C114.624 29.7258 115.218 29.8888 115.886 29.8888C116.256 29.8888 116.602 29.8405 116.924 29.744C117.25 29.6433 117.542 29.4964 117.8 29.3033C118.061 29.1101 118.281 28.8726 118.458 28.5909C118.639 28.3092 118.763 27.9872 118.832 27.625L121.09 27.6371C121.005 28.2247 120.822 28.776 120.54 29.2912C120.263 29.8063 119.898 30.2611 119.448 30.6555C118.997 31.0459 118.47 31.3518 117.866 31.5731C117.262 31.7905 116.592 31.8991 115.856 31.8991C114.769 31.8991 113.799 31.6476 112.946 31.1445C112.093 30.6414 111.421 29.915 110.93 28.9652C110.439 28.0154 110.193 26.8764 110.193 25.5483C110.193 24.2161 110.441 23.0772 110.936 22.1314C111.431 21.1816 112.105 20.4551 112.958 19.952C113.811 19.449 114.777 19.1974 115.856 19.1974C116.544 19.1974 117.184 19.294 117.775 19.4872C118.367 19.6804 118.894 19.9641 119.357 20.3384C119.82 20.7087 120.2 21.1635 120.498 21.7028C120.8 22.238 120.997 22.8498 121.09 23.538ZM127.089 31.9112C126.183 31.9112 125.399 31.712 124.735 31.3136C124.07 30.9151 123.555 30.3577 123.189 29.6413C122.827 28.9249 122.646 28.0878 122.646 27.13C122.646 26.1721 122.827 25.333 123.189 24.6126C123.555 23.8922 124.07 23.3327 124.735 22.9343C125.399 22.5359 126.183 22.3366 127.089 22.3366C127.994 22.3366 128.779 22.5359 129.443 22.9343C130.107 23.3327 130.621 23.8922 130.983 24.6126C131.349 25.333 131.532 26.1721 131.532 27.13C131.532 28.0878 131.349 28.9249 130.983 29.6413C130.621 30.3577 130.107 30.9151 129.443 31.3136C128.779 31.712 127.994 31.9112 127.089 31.9112ZM127.101 30.1605C127.592 30.1605 128.003 30.0257 128.333 29.756C128.663 29.4824 128.908 29.1161 129.069 28.6573C129.234 28.1985 129.317 27.6874 129.317 27.1239C129.317 26.5565 129.234 26.0433 129.069 25.5845C128.908 25.1217 128.663 24.7534 128.333 24.4797C128.003 24.2061 127.592 24.0692 127.101 24.0692C126.598 24.0692 126.179 24.2061 125.845 24.4797C125.515 24.7534 125.268 25.1217 125.103 25.5845C124.942 26.0433 124.861 26.5565 124.861 27.1239C124.861 27.6874 124.942 28.1985 125.103 28.6573C125.268 29.1161 125.515 29.4824 125.845 29.756C126.179 30.0257 126.598 30.1605 127.101 30.1605ZM135.572 26.2969V31.7301H133.387V22.4574H135.476V24.033H135.584C135.798 23.5138 136.138 23.1013 136.605 22.7954C137.076 22.4896 137.657 22.3366 138.349 22.3366C138.989 22.3366 139.547 22.4735 140.022 22.7471C140.5 23.0208 140.871 23.4172 141.132 23.9364C141.398 24.4556 141.529 25.0855 141.525 25.826V31.7301H139.339V26.1641C139.339 25.5443 139.178 25.0593 138.856 24.7092C138.538 24.359 138.098 24.1839 137.534 24.1839C137.152 24.1839 136.812 24.2685 136.514 24.4375C136.22 24.6025 135.989 24.842 135.82 25.1559C135.655 25.4698 135.572 25.8501 135.572 26.2969ZM148.377 22.4574V24.1477H143.046V22.4574H148.377ZM144.362 20.2358H146.547V28.941C146.547 29.2348 146.592 29.4602 146.68 29.6172C146.773 29.7701 146.894 29.8748 147.042 29.9311C147.191 29.9874 147.356 30.0156 147.538 30.0156C147.674 30.0156 147.799 30.0056 147.912 29.9854C148.029 29.9653 148.117 29.9472 148.177 29.9311L148.546 31.6395C148.429 31.6798 148.262 31.7241 148.045 31.7724C147.831 31.8207 147.57 31.8488 147.26 31.8569C146.712 31.873 146.219 31.7905 145.781 31.6094C145.342 31.4242 144.994 31.1385 144.736 30.7521C144.483 30.3658 144.358 29.8828 144.362 29.3033V20.2358ZM150.204 31.7301V22.4574H152.39V31.7301H150.204ZM151.303 21.1413C150.957 21.1413 150.659 21.0266 150.41 20.7972C150.16 20.5638 150.035 20.2841 150.035 19.9581C150.035 19.6281 150.16 19.3484 150.41 19.119C150.659 18.8855 150.957 18.7688 151.303 18.7688C151.653 18.7688 151.951 18.8855 152.197 19.119C152.446 19.3484 152.571 19.6281 152.571 19.9581C152.571 20.2841 152.446 20.5638 152.197 20.7972C151.951 21.0266 151.653 21.1413 151.303 21.1413ZM156.822 26.2969V31.7301H154.637V22.4574H156.726V24.033H156.834C157.048 23.5138 157.388 23.1013 157.855 22.7954C158.326 22.4896 158.907 22.3366 159.599 22.3366C160.239 22.3366 160.797 22.4735 161.272 22.7471C161.75 23.0208 162.121 23.4172 162.382 23.9364C162.648 24.4556 162.779 25.0855 162.775 25.826V31.7301H160.589V26.1641C160.589 25.5443 160.428 25.0593 160.106 24.7092C159.788 24.359 159.348 24.1839 158.784 24.1839C158.402 24.1839 158.062 24.2685 157.764 24.4375C157.47 24.6025 157.239 24.842 157.07 25.1559C156.905 25.4698 156.822 25.8501 156.822 26.2969ZM170.906 27.8302V22.4574H173.092V31.7301H170.973V30.082H170.876C170.667 30.6012 170.323 31.0258 169.844 31.3558C169.369 31.6858 168.783 31.8508 168.087 31.8508C167.48 31.8508 166.942 31.716 166.475 31.4464C166.013 31.1727 165.65 30.7763 165.389 30.2571C165.127 29.7339 164.996 29.102 164.996 28.3615V22.4574H167.182V28.0234C167.182 28.611 167.343 29.0779 167.665 29.424C167.987 29.7701 168.409 29.9432 168.932 29.9432C169.254 29.9432 169.566 29.8647 169.868 29.7077C170.17 29.5508 170.417 29.3173 170.611 29.0074C170.808 28.6935 170.906 28.3011 170.906 27.8302ZM179.444 31.9112C178.515 31.9112 177.712 31.718 177.035 31.3317C176.363 30.9413 175.846 30.3899 175.484 29.6775C175.122 28.9612 174.941 28.118 174.941 27.1481C174.941 26.1942 175.122 25.3571 175.484 24.6367C175.85 23.9123 176.361 23.3488 177.017 22.9464C177.673 22.5399 178.444 22.3366 179.33 22.3366C179.901 22.3366 180.44 22.4292 180.947 22.6143C181.459 22.7954 181.909 23.0772 182.3 23.4595C182.694 23.8418 183.004 24.3288 183.229 24.9204C183.455 25.508 183.567 26.2083 183.567 27.0213V27.6914H175.967V26.2184H181.473C181.469 25.7998 181.378 25.4275 181.201 25.1016C181.024 24.7715 180.776 24.5119 180.458 24.3228C180.144 24.1336 179.778 24.0391 179.36 24.0391C178.913 24.0391 178.521 24.1477 178.182 24.365C177.844 24.5784 177.581 24.8601 177.392 25.2102C177.207 25.5563 177.112 25.9367 177.108 26.3512V27.6371C177.108 28.1764 177.207 28.6392 177.404 29.0256C177.601 29.4079 177.877 29.7017 178.231 29.9069C178.585 30.1082 178.999 30.2088 179.474 30.2088C179.792 30.2088 180.08 30.1645 180.338 30.076C180.595 29.9834 180.819 29.8486 181.008 29.6715C181.197 29.4944 181.34 29.2751 181.436 29.0135L183.477 29.2429C183.348 29.7822 183.103 30.2531 182.74 30.6555C182.382 31.054 181.923 31.3639 181.364 31.5852C180.805 31.8025 180.165 31.9112 179.444 31.9112Z" fill="white"/>
</svg>

