<svg width="301" height="62" viewBox="0 0 301 62" fill="none" xmlns="http://www.w3.org/2000/svg">
<g filter="url(#filter0_dd_669_354)">
<rect x="3" y="3" width="295" height="54" rx="10" fill="white"/>
<rect width="24" height="24" transform="translate(18 18)" fill="white"/>
<path fill-rule="evenodd" clip-rule="evenodd" d="M41.04 30.2614C41.04 29.4459 40.9668 28.6618 40.8309 27.9091H30V32.3575H36.1891C35.9225 33.795 35.1123 35.013 33.8943 35.8284V38.7139H37.6109C39.7855 36.7118 41.04 33.7637 41.04 30.2614Z" fill="#4285F4"/>
<path fill-rule="evenodd" clip-rule="evenodd" d="M30 41.4998C33.105 41.4998 35.7081 40.47 37.6109 38.7137L33.8943 35.8282C32.8645 36.5182 31.5472 36.9259 30 36.9259C27.0047 36.9259 24.4695 34.903 23.5652 32.1848H19.7231V35.1644C21.6154 38.9228 25.5045 41.4998 30 41.4998Z" fill="#34A853"/>
<path fill-rule="evenodd" clip-rule="evenodd" d="M23.5652 32.1851C23.3352 31.4951 23.2045 30.758 23.2045 30.0001C23.2045 29.2421 23.3352 28.5051 23.5652 27.8151V24.8355H19.7232C18.9443 26.388 18.5 28.1444 18.5 30.0001C18.5 31.8557 18.9443 33.6121 19.7232 35.1646L23.5652 32.1851Z" fill="#FBBC05"/>
<path fill-rule="evenodd" clip-rule="evenodd" d="M30 23.0739C31.6884 23.0739 33.2043 23.6541 34.3961 24.7936L37.6945 21.4952C35.7029 19.6395 33.0997 18.5 30 18.5C25.5045 18.5 21.6154 21.077 19.7231 24.8355L23.5652 27.815C24.4695 25.0968 27.0047 23.0739 30 23.0739Z" fill="#EA4335"/>
<path d="M66.5312 26.2756C66.4555 25.6032 66.143 25.0824 65.5938 24.7131C65.0445 24.339 64.3532 24.152 63.5199 24.152C62.9233 24.152 62.4072 24.2467 61.9716 24.4361C61.536 24.6207 61.1974 24.8764 60.956 25.2031C60.7192 25.5251 60.6009 25.892 60.6009 26.304C60.6009 26.6496 60.6813 26.9479 60.8423 27.1989C61.008 27.4498 61.2235 27.6605 61.4886 27.831C61.7585 27.9967 62.0473 28.1364 62.3551 28.25C62.6629 28.3589 62.9588 28.4489 63.2429 28.5199L64.6634 28.8892C65.1274 29.0028 65.6032 29.1567 66.0909 29.3509C66.5786 29.545 67.0308 29.8007 67.4474 30.1179C67.8641 30.4351 68.2003 30.8281 68.456 31.2969C68.7164 31.7656 68.8466 32.3267 68.8466 32.9801C68.8466 33.804 68.6335 34.5355 68.2074 35.1747C67.786 35.8139 67.1728 36.3182 66.3679 36.6875C65.5677 37.0568 64.5994 37.2415 63.4631 37.2415C62.3741 37.2415 61.4318 37.0687 60.6364 36.723C59.8409 36.3774 59.2183 35.8873 58.7685 35.2528C58.3187 34.6136 58.0701 33.8561 58.0227 32.9801H60.2244C60.267 33.5057 60.4375 33.9437 60.7358 34.294C61.0388 34.6397 61.4247 34.8977 61.8935 35.0682C62.367 35.2339 62.8854 35.3168 63.4489 35.3168C64.0691 35.3168 64.6207 35.2197 65.1037 35.0256C65.5914 34.8267 65.9749 34.5521 66.2543 34.2017C66.5336 33.8466 66.6733 33.4323 66.6733 32.9588C66.6733 32.5279 66.5502 32.1752 66.304 31.9006C66.0625 31.6259 65.7334 31.3987 65.3168 31.2188C64.9048 31.0388 64.4384 30.8802 63.9176 30.7429L62.1989 30.2741C61.0341 29.9569 60.1108 29.4905 59.429 28.875C58.7519 28.2595 58.4134 27.4451 58.4134 26.4318C58.4134 25.5937 58.6406 24.8622 59.0952 24.2372C59.5497 23.6122 60.1652 23.1269 60.9418 22.7812C61.7183 22.4309 62.5942 22.2557 63.5696 22.2557C64.5545 22.2557 65.4233 22.4285 66.1761 22.7741C66.9337 23.1198 67.5303 23.5956 67.9659 24.2017C68.4015 24.803 68.6288 25.4943 68.6477 26.2756H66.5312ZM71.2987 37V26.0909H73.4222V37H71.2987ZM72.3711 24.4077C72.0018 24.4077 71.6845 24.2846 71.4194 24.0384C71.159 23.7874 71.0288 23.4891 71.0288 23.1435C71.0288 22.7931 71.159 22.4948 71.4194 22.2486C71.6845 21.9976 72.0018 21.8722 72.3711 21.8722C72.7404 21.8722 73.0553 21.9976 73.3157 22.2486C73.5808 22.4948 73.7134 22.7931 73.7134 23.1435C73.7134 23.4891 73.5808 23.7874 73.3157 24.0384C73.0553 24.2846 72.7404 24.4077 72.3711 24.4077ZM80.853 41.3182C79.9865 41.3182 79.2408 41.2045 78.6158 40.9773C77.9955 40.75 77.4889 40.4493 77.0959 40.0753C76.7029 39.7012 76.4093 39.2917 76.2152 38.8466L78.0405 38.0938C78.1683 38.3021 78.3388 38.5223 78.5518 38.7543C78.7696 38.991 79.0632 39.1922 79.4325 39.358C79.8066 39.5237 80.2872 39.6065 80.8743 39.6065C81.6792 39.6065 82.3445 39.41 82.87 39.017C83.3956 38.6288 83.6584 38.0085 83.6584 37.1562V35.0114H83.5234C83.3956 35.2434 83.2109 35.5014 82.9695 35.7855C82.7327 36.0696 82.406 36.3158 81.9893 36.5241C81.5727 36.7325 81.0305 36.8366 80.3629 36.8366C79.5012 36.8366 78.7247 36.6354 78.0334 36.233C77.3468 35.8258 76.8023 35.2268 76.3999 34.4361C76.0021 33.6406 75.8033 32.6629 75.8033 31.5028C75.8033 30.3428 75.9998 29.3485 76.3928 28.5199C76.7905 27.6913 77.335 27.0568 78.0263 26.6165C78.7176 26.1714 79.5012 25.9489 80.3771 25.9489C81.0542 25.9489 81.6011 26.0625 82.0178 26.2898C82.4344 26.5123 82.7588 26.7727 82.9908 27.071C83.2275 27.3693 83.4098 27.6321 83.5376 27.8594H83.6939V26.0909H85.7749V37.2415C85.7749 38.179 85.5571 38.9484 85.1214 39.5497C84.6858 40.151 84.0964 40.5961 83.353 40.8849C82.6143 41.1738 81.781 41.3182 80.853 41.3182ZM80.8317 35.0753C81.4425 35.0753 81.9586 34.9332 82.38 34.6491C82.8061 34.3603 83.1281 33.9484 83.3459 33.4134C83.5684 32.8736 83.6797 32.2273 83.6797 31.4744C83.6797 30.7405 83.5708 30.0942 83.353 29.5355C83.1352 28.9768 82.8156 28.5412 82.3942 28.2287C81.9728 27.9115 81.4519 27.7528 80.8317 27.7528C80.1925 27.7528 79.6598 27.9186 79.2337 28.25C78.8075 28.5767 78.4856 29.0218 78.2678 29.5852C78.0547 30.1487 77.9482 30.7784 77.9482 31.4744C77.9482 32.1894 78.0571 32.8168 78.2749 33.3565C78.4927 33.8963 78.8146 34.3177 79.2408 34.6207C79.6716 34.9238 80.2019 35.0753 80.8317 35.0753ZM90.7464 30.5227V37H88.6229V26.0909H90.6612V27.8665H90.7962C91.0471 27.2888 91.4401 26.8248 91.9751 26.4744C92.5149 26.1241 93.1944 25.9489 94.0135 25.9489C94.7569 25.9489 95.4079 26.1051 95.9666 26.4176C96.5253 26.7254 96.9586 27.1847 97.2663 27.7955C97.5741 28.4062 97.728 29.1615 97.728 30.0611V37H95.6044V30.3168C95.6044 29.526 95.3984 28.9081 94.9865 28.4631C94.5746 28.0133 94.0088 27.7884 93.2891 27.7884C92.7966 27.7884 92.3587 27.8949 91.9751 28.108C91.5964 28.321 91.2957 28.6335 91.0732 29.0455C90.8554 29.4527 90.7464 29.9451 90.7464 30.5227ZM115.393 22.4545H117.595V32.0213C117.595 33.0393 117.356 33.9413 116.877 34.7273C116.399 35.5085 115.727 36.1241 114.86 36.5739C113.994 37.0189 112.978 37.2415 111.814 37.2415C110.654 37.2415 109.64 37.0189 108.774 36.5739C107.907 36.1241 107.235 35.5085 106.757 34.7273C106.279 33.9413 106.039 33.0393 106.039 32.0213V22.4545H108.234V31.8438C108.234 32.5019 108.378 33.0866 108.667 33.598C108.961 34.1094 109.375 34.5118 109.91 34.8054C110.445 35.0942 111.08 35.2386 111.814 35.2386C112.552 35.2386 113.189 35.0942 113.724 34.8054C114.264 34.5118 114.676 34.1094 114.96 33.598C115.249 33.0866 115.393 32.5019 115.393 31.8438V22.4545ZM120.615 41.0909V26.0909H122.689V27.8594H122.866C122.99 27.6321 123.167 27.3693 123.399 27.071C123.631 26.7727 123.953 26.5123 124.365 26.2898C124.777 26.0625 125.321 25.9489 125.999 25.9489C126.879 25.9489 127.665 26.1714 128.357 26.6165C129.048 27.0616 129.59 27.7031 129.983 28.5412C130.381 29.3793 130.58 30.3878 130.58 31.5668C130.58 32.7457 130.383 33.7566 129.99 34.5994C129.597 35.4375 129.057 36.0838 128.371 36.5384C127.684 36.9882 126.901 37.2131 126.02 37.2131C125.357 37.2131 124.815 37.1018 124.393 36.8793C123.977 36.6567 123.65 36.3963 123.413 36.098C123.177 35.7997 122.994 35.5346 122.866 35.3026H122.739V41.0909H120.615ZM122.696 31.5455C122.696 32.3125 122.807 32.9848 123.03 33.5625C123.252 34.1402 123.574 34.5923 123.996 34.919C124.417 35.241 124.933 35.402 125.544 35.402C126.179 35.402 126.709 35.2339 127.135 34.8977C127.561 34.5568 127.883 34.0952 128.101 33.5128C128.323 32.9304 128.435 32.2746 128.435 31.5455C128.435 30.8258 128.326 30.1795 128.108 29.6065C127.895 29.0336 127.573 28.5814 127.142 28.25C126.716 27.9186 126.183 27.7528 125.544 27.7528C124.929 27.7528 124.408 27.9115 123.982 28.2287C123.56 28.5459 123.241 28.9886 123.023 29.5568C122.805 30.125 122.696 30.7879 122.696 31.5455ZM140.617 37L137.407 26.0909H139.601L141.739 34.1023H141.846L143.99 26.0909H146.185L148.316 34.0668H148.422L150.546 26.0909H152.74L149.537 37H147.371L145.155 29.1236H144.992L142.776 37H140.617ZM154.756 37V26.0909H156.879V37H154.756ZM155.828 24.4077C155.459 24.4077 155.142 24.2846 154.876 24.0384C154.616 23.7874 154.486 23.4891 154.486 23.1435C154.486 22.7931 154.616 22.4948 154.876 22.2486C155.142 21.9976 155.459 21.8722 155.828 21.8722C156.197 21.8722 156.512 21.9976 156.773 22.2486C157.038 22.4948 157.17 22.7931 157.17 23.1435C157.17 23.4891 157.038 23.7874 156.773 24.0384C156.512 24.2846 156.197 24.4077 155.828 24.4077ZM164.828 26.0909V27.7955H158.87V26.0909H164.828ZM160.468 23.4773H162.591V33.7969C162.591 34.2088 162.653 34.5189 162.776 34.7273C162.899 34.9309 163.058 35.0705 163.252 35.1463C163.451 35.2173 163.666 35.2528 163.898 35.2528C164.069 35.2528 164.218 35.241 164.346 35.2173C164.473 35.1937 164.573 35.1747 164.644 35.1605L165.027 36.9148C164.904 36.9621 164.729 37.0095 164.502 37.0568C164.275 37.1089 163.99 37.1373 163.65 37.142C163.091 37.1515 162.57 37.0521 162.087 36.8438C161.604 36.6354 161.213 36.3134 160.915 35.8778C160.617 35.4422 160.468 34.8954 160.468 34.2372V23.4773ZM169.536 30.5227V37H167.412V22.4545H169.507V27.8665H169.642C169.898 27.2794 170.288 26.813 170.814 26.4673C171.339 26.1217 172.026 25.9489 172.874 25.9489C173.622 25.9489 174.275 26.1027 174.834 26.4105C175.397 26.7183 175.833 27.1776 176.141 27.7884C176.453 28.3944 176.609 29.152 176.609 30.0611V37H174.486V30.3168C174.486 29.5166 174.28 28.8963 173.868 28.456C173.456 28.0109 172.883 27.7884 172.149 27.7884C171.647 27.7884 171.197 27.8949 170.8 28.108C170.407 28.321 170.097 28.6335 169.869 29.0455C169.647 29.4527 169.536 29.9451 169.536 30.5227ZM194.75 27.0497C194.613 26.6188 194.428 26.233 194.196 25.892C193.969 25.5464 193.697 25.2528 193.38 25.0114C193.062 24.7652 192.7 24.5781 192.293 24.4503C191.891 24.3224 191.448 24.2585 190.965 24.2585C190.146 24.2585 189.407 24.4692 188.749 24.8906C188.091 25.312 187.57 25.9299 187.186 26.7443C186.808 27.554 186.618 28.5459 186.618 29.7202C186.618 30.8991 186.81 31.8958 187.194 32.7102C187.577 33.5246 188.103 34.1425 188.77 34.5639C189.438 34.9853 190.198 35.196 191.05 35.196C191.841 35.196 192.53 35.035 193.117 34.7131C193.709 34.3911 194.166 33.9366 194.488 33.3494C194.814 32.7576 194.978 32.0616 194.978 31.2614L195.546 31.3679H191.384V29.5568H197.101V31.2116C197.101 32.4332 196.841 33.4938 196.32 34.3935C195.804 35.2884 195.089 35.9796 194.175 36.4673C193.266 36.955 192.224 37.1989 191.05 37.1989C189.734 37.1989 188.578 36.8958 187.584 36.2898C186.595 35.6837 185.823 34.8243 185.269 33.7116C184.715 32.5942 184.438 31.2685 184.438 29.7344C184.438 28.5743 184.599 27.5327 184.921 26.6094C185.243 25.6861 185.695 24.9025 186.277 24.2585C186.864 23.6098 187.553 23.1151 188.344 22.7741C189.14 22.4285 190.008 22.2557 190.951 22.2557C191.737 22.2557 192.468 22.3717 193.145 22.6037C193.827 22.8357 194.433 23.1648 194.963 23.5909C195.498 24.017 195.941 24.5237 196.292 25.1108C196.642 25.6932 196.879 26.3395 197.002 27.0497H194.75ZM204.312 37.2202C203.289 37.2202 202.397 36.9858 201.634 36.517C200.872 36.0483 200.28 35.3925 199.859 34.5497C199.437 33.7069 199.227 32.7221 199.227 31.5952C199.227 30.4635 199.437 29.474 199.859 28.6264C200.28 27.7789 200.872 27.1207 201.634 26.652C202.397 26.1832 203.289 25.9489 204.312 25.9489C205.335 25.9489 206.227 26.1832 206.989 26.652C207.752 27.1207 208.344 27.7789 208.765 28.6264C209.186 29.474 209.397 30.4635 209.397 31.5952C209.397 32.7221 209.186 33.7069 208.765 34.5497C208.344 35.3925 207.752 36.0483 206.989 36.517C206.227 36.9858 205.335 37.2202 204.312 37.2202ZM204.319 35.4375C204.982 35.4375 205.531 35.2623 205.967 34.9119C206.402 34.5616 206.724 34.0952 206.933 33.5128C207.146 32.9304 207.252 32.2888 207.252 31.5881C207.252 30.892 207.146 30.2528 206.933 29.6705C206.724 29.0833 206.402 28.6122 205.967 28.2571C205.531 27.902 204.982 27.7244 204.319 27.7244C203.651 27.7244 203.097 27.902 202.657 28.2571C202.221 28.6122 201.897 29.0833 201.684 29.6705C201.476 30.2528 201.371 30.892 201.371 31.5881C201.371 32.2888 201.476 32.9304 201.684 33.5128C201.897 34.0952 202.221 34.5616 202.657 34.9119C203.097 35.2623 203.651 35.4375 204.319 35.4375ZM216.363 37.2202C215.34 37.2202 214.447 36.9858 213.685 36.517C212.923 36.0483 212.331 35.3925 211.909 34.5497C211.488 33.7069 211.277 32.7221 211.277 31.5952C211.277 30.4635 211.488 29.474 211.909 28.6264C212.331 27.7789 212.923 27.1207 213.685 26.652C214.447 26.1832 215.34 25.9489 216.363 25.9489C217.385 25.9489 218.278 26.1832 219.04 26.652C219.802 27.1207 220.394 27.7789 220.816 28.6264C221.237 29.474 221.448 30.4635 221.448 31.5952C221.448 32.7221 221.237 33.7069 220.816 34.5497C220.394 35.3925 219.802 36.0483 219.04 36.517C218.278 36.9858 217.385 37.2202 216.363 37.2202ZM216.37 35.4375C217.033 35.4375 217.582 35.2623 218.017 34.9119C218.453 34.5616 218.775 34.0952 218.983 33.5128C219.196 32.9304 219.303 32.2888 219.303 31.5881C219.303 30.892 219.196 30.2528 218.983 29.6705C218.775 29.0833 218.453 28.6122 218.017 28.2571C217.582 27.902 217.033 27.7244 216.37 27.7244C215.702 27.7244 215.148 27.902 214.708 28.2571C214.272 28.6122 213.948 29.0833 213.735 29.6705C213.526 30.2528 213.422 30.892 213.422 31.5881C213.422 32.2888 213.526 32.9304 213.735 33.5128C213.948 34.0952 214.272 34.5616 214.708 34.9119C215.148 35.2623 215.702 35.4375 216.37 35.4375ZM228.392 41.3182C227.526 41.3182 226.78 41.2045 226.155 40.9773C225.535 40.75 225.028 40.4493 224.635 40.0753C224.242 39.7012 223.948 39.2917 223.754 38.8466L225.58 38.0938C225.707 38.3021 225.878 38.5223 226.091 38.7543C226.309 38.991 226.602 39.1922 226.972 39.358C227.346 39.5237 227.826 39.6065 228.413 39.6065C229.218 39.6065 229.884 39.41 230.409 39.017C230.935 38.6288 231.197 38.0085 231.197 37.1562V35.0114H231.062C230.935 35.2434 230.75 35.5014 230.509 35.7855C230.272 36.0696 229.945 36.3158 229.528 36.5241C229.112 36.7325 228.57 36.8366 227.902 36.8366C227.04 36.8366 226.264 36.6354 225.572 36.233C224.886 35.8258 224.341 35.2268 223.939 34.4361C223.541 33.6406 223.342 32.6629 223.342 31.5028C223.342 30.3428 223.539 29.3485 223.932 28.5199C224.33 27.6913 224.874 27.0568 225.565 26.6165C226.257 26.1714 227.04 25.9489 227.916 25.9489C228.593 25.9489 229.14 26.0625 229.557 26.2898C229.973 26.5123 230.298 26.7727 230.53 27.071C230.767 27.3693 230.949 27.6321 231.077 27.8594H231.233V26.0909H233.314V37.2415C233.314 38.179 233.096 38.9484 232.661 39.5497C232.225 40.151 231.635 40.5961 230.892 40.8849C230.153 41.1738 229.32 41.3182 228.392 41.3182ZM228.371 35.0753C228.982 35.0753 229.498 34.9332 229.919 34.6491C230.345 34.3603 230.667 33.9484 230.885 33.4134C231.107 32.8736 231.219 32.2273 231.219 31.4744C231.219 30.7405 231.11 30.0942 230.892 29.5355C230.674 28.9768 230.355 28.5412 229.933 28.2287C229.512 27.9115 228.991 27.7528 228.371 27.7528C227.732 27.7528 227.199 27.9186 226.773 28.25C226.347 28.5767 226.025 29.0218 225.807 29.5852C225.594 30.1487 225.487 30.7784 225.487 31.4744C225.487 32.1894 225.596 32.8168 225.814 33.3565C226.032 33.8963 226.354 34.3177 226.78 34.6207C227.211 34.9238 227.741 35.0753 228.371 35.0753ZM238.286 22.4545V37H236.162V22.4545H238.286ZM245.844 37.2202C244.769 37.2202 243.844 36.9905 243.067 36.5312C242.295 36.0672 241.699 35.4162 241.277 34.5781C240.861 33.7353 240.652 32.7481 240.652 31.6165C240.652 30.4991 240.861 29.5142 241.277 28.6619C241.699 27.8097 242.286 27.1444 243.039 26.6662C243.796 26.188 244.682 25.9489 245.695 25.9489C246.31 25.9489 246.907 26.0507 247.485 26.2543C248.062 26.4579 248.581 26.7775 249.04 27.2131C249.499 27.6487 249.862 28.2145 250.127 28.9105C250.392 29.6018 250.525 30.4422 250.525 31.4318V32.1847H241.853V30.5938H248.444C248.444 30.035 248.33 29.5402 248.103 29.1094C247.875 28.6738 247.556 28.3305 247.144 28.0795C246.737 27.8286 246.258 27.7031 245.709 27.7031C245.113 27.7031 244.592 27.8499 244.147 28.1435C243.706 28.4323 243.365 28.8111 243.124 29.2798C242.887 29.7438 242.769 30.2481 242.769 30.7926V32.0355C242.769 32.7647 242.897 33.3849 243.152 33.8963C243.413 34.4077 243.775 34.7983 244.239 35.0682C244.703 35.3333 245.245 35.4659 245.865 35.4659C246.268 35.4659 246.635 35.4091 246.966 35.2955C247.298 35.1771 247.584 35.0019 247.826 34.7699C248.067 34.5379 248.252 34.2514 248.38 33.9105L250.39 34.2727C250.229 34.8646 249.94 35.383 249.523 35.8281C249.111 36.2685 248.593 36.6117 247.968 36.858C247.347 37.0994 246.64 37.2202 245.844 37.2202Z" fill="black" fill-opacity="0.54"/>
</g>
<defs>
<filter id="filter0_dd_669_354" x="0" y="0" width="301" height="62" filterUnits="userSpaceOnUse" color-interpolation-filters="sRGB">
<feFlood flood-opacity="0" result="BackgroundImageFix"/>
<feColorMatrix in="SourceAlpha" type="matrix" values="0 0 0 0 0 0 0 0 0 0 0 0 0 0 0 0 0 0 127 0" result="hardAlpha"/>
<feOffset dy="2"/>
<feGaussianBlur stdDeviation="1.5"/>
<feColorMatrix type="matrix" values="0 0 0 0 0 0 0 0 0 0 0 0 0 0 0 0 0 0 0.168 0"/>
<feBlend mode="normal" in2="BackgroundImageFix" result="effect1_dropShadow_669_354"/>
<feColorMatrix in="SourceAlpha" type="matrix" values="0 0 0 0 0 0 0 0 0 0 0 0 0 0 0 0 0 0 127 0" result="hardAlpha"/>
<feOffset/>
<feGaussianBlur stdDeviation="1.5"/>
<feColorMatrix type="matrix" values="0 0 0 0 0 0 0 0 0 0 0 0 0 0 0 0 0 0 0.084 0"/>
<feBlend mode="normal" in2="effect1_dropShadow_669_354" result="effect2_dropShadow_669_354"/>
<feBlend mode="normal" in="SourceGraphic" in2="effect2_dropShadow_669_354" result="shape"/>
</filter>
</defs>
</svg>

