<svg width="19" height="20" viewBox="0 0 19 20" fill="none" xmlns="http://www.w3.org/2000/svg">
<path d="M4.01001 5.73379C4.01001 4.4071 4.56997 3.13475 5.56672 2.19664C6.56346 1.25853 7.91533 0.731506 9.32494 0.731506C10.7345 0.731506 12.0864 1.25853 13.0832 2.19664C14.0799 3.13475 14.6399 4.4071 14.6399 5.73379C14.6399 7.06048 14.0799 8.33283 13.0832 9.27094C12.0864 10.209 10.7345 10.7361 9.32494 10.7361C7.91533 10.7361 6.56346 10.209 5.56672 9.27094C4.56997 8.33283 4.01001 7.06048 4.01001 5.73379ZM9.32494 8.73516C10.1707 8.73516 10.9818 8.41894 11.5799 7.85608C12.1779 7.29321 12.5139 6.5298 12.5139 5.73379C12.5139 4.93778 12.1779 4.17437 11.5799 3.6115C10.9818 3.04863 10.1707 2.73242 9.32494 2.73242C8.47917 2.73242 7.66805 3.04863 7.07 3.6115C6.47196 4.17437 6.13598 4.93778 6.13598 5.73379C6.13598 6.5298 6.47196 7.29321 7.07 7.85608C7.66805 8.41894 8.47917 8.73516 9.32494 8.73516Z" fill="black"/>
<path d="M2.64526 14.0805C1.80916 14.8237 1.14594 15.706 0.693469 16.6771C0.240998 17.6481 0.00813563 18.6889 0.00817872 19.7399H2.25921C2.25921 18.1479 2.97069 16.6212 4.23714 15.4955C5.50359 14.3698 7.22126 13.7374 9.01229 13.7374C10.8033 13.7374 12.521 14.3698 13.7874 15.4955C15.0539 16.6212 15.7654 18.1479 15.7654 19.7399H18.0164C18.0165 18.1569 17.4884 16.6095 16.499 15.2933C15.5097 13.9771 14.1034 12.9513 12.4581 12.3455C10.8127 11.7397 9.00225 11.5812 7.25558 11.89C5.50891 12.1989 3.90451 12.9612 2.64526 14.0805Z" fill="black"/>
</svg>
