<svg width="20" height="21" viewBox="0 0 20 21" fill="none" xmlns="http://www.w3.org/2000/svg">
<path d="M16.3485 9.60132H3.67607C2.67624 9.60132 1.86572 10.4118 1.86572 11.4117V17.7479C1.86572 18.7477 2.67624 19.5582 3.67607 19.5582H16.3485C17.3484 19.5582 18.1589 18.7477 18.1589 17.7479V11.4117C18.1589 10.4118 17.3484 9.60132 16.3485 9.60132Z" stroke="black" stroke-width="2.5" stroke-linecap="round" stroke-linejoin="round"/>
<path d="M5.48645 9.60135V5.98065C5.48645 4.78031 5.96328 3.62914 6.81205 2.78037C7.66081 1.9316 8.81199 1.45477 10.0123 1.45477C11.2127 1.45477 12.3638 1.9316 13.2126 2.78037C14.0614 3.62914 14.5382 4.78031 14.5382 5.98065V9.60135" stroke="black" stroke-width="2.5" stroke-linecap="round" stroke-linejoin="round"/>
</svg>

