<svg width="34" height="34" viewBox="0 0 34 34" xmlns="http://www.w3.org/2000/svg">
    <g id="Icon-Check" fill="#C70039">
        <path d="M17,33.93 C7.665,33.93 0.07,26.335 0.07,17 C0.07,7.665 7.665,0.07 17,0.07 C26.335,0.07 33.93,7.665 33.93,17 C33.93,26.335 26.335,33.93 17,33.93 L17,33.93 Z M17,1.93 C8.69,1.93 1.93,8.69 1.93,17 C1.93,25.31 8.69,32.07 17,32.07 C25.31,32.07 32.07,25.31 32.07,17 C32.07,8.69 25.31,1.93 17,1.93 L17,1.93 Z" id="Fill-43"></path>
        <polyline id="Fill-44" points="14.978 24.316 6.342 15.657 7.658 14.343 14.981 21.684 26.343 10.321 27.657 11.637 14.978 24.316"></polyline>
    </g>
</svg>

