<svg width="301" height="62" viewBox="0 0 301 62" fill="none" xmlns="http://www.w3.org/2000/svg">
<g filter="url(#filter0_dd_911_292)">
<rect x="3" y="3" width="295" height="54" rx="10" fill="white"/>
<rect width="24" height="24" transform="translate(18 18)" fill="white"/>
<path fill-rule="evenodd" clip-rule="evenodd" d="M41.04 30.2613C41.04 29.4459 40.9668 28.6618 40.8309 27.9091H30V32.3575H36.1891C35.9225 33.795 35.1123 35.0129 33.8943 35.8284V38.7138H37.6109C39.7855 36.7118 41.04 33.7636 41.04 30.2613Z" fill="#4285F4"/>
<path fill-rule="evenodd" clip-rule="evenodd" d="M29.9999 41.4998C33.1049 41.4998 35.7081 40.47 37.6108 38.7137L33.8942 35.8282C32.8645 36.5182 31.5472 36.9259 29.9999 36.9259C27.0047 36.9259 24.4695 34.903 23.5651 32.1848H19.7231V35.1644C21.6154 38.9228 25.5045 41.4998 29.9999 41.4998Z" fill="#34A853"/>
<path fill-rule="evenodd" clip-rule="evenodd" d="M23.5652 32.1851C23.3352 31.4951 23.2045 30.7581 23.2045 30.0001C23.2045 29.2422 23.3352 28.5051 23.5652 27.8151V24.8356H19.7232C18.9443 26.3881 18.5 28.1444 18.5 30.0001C18.5 31.8558 18.9443 33.6122 19.7232 35.1647L23.5652 32.1851Z" fill="#FBBC05"/>
<path fill-rule="evenodd" clip-rule="evenodd" d="M29.9999 23.0739C31.6883 23.0739 33.2042 23.6541 34.3961 24.7936L37.6945 21.4952C35.7029 19.6395 33.0997 18.5 29.9999 18.5C25.5045 18.5 21.6154 21.077 19.7231 24.8355L23.5651 27.815C24.4695 25.0968 27.0047 23.0739 29.9999 23.0739Z" fill="#EA4335"/>
<path d="M58.598 37V22.4545H60.7926V35.1108H67.3835V37H58.598ZM74.3118 37.2202C73.2891 37.2202 72.3965 36.9858 71.6342 36.517C70.8719 36.0483 70.2801 35.3925 69.8587 34.5497C69.4373 33.7069 69.2266 32.7221 69.2266 31.5952C69.2266 30.4635 69.4373 29.474 69.8587 28.6264C70.2801 27.7789 70.8719 27.1207 71.6342 26.652C72.3965 26.1832 73.2891 25.9489 74.3118 25.9489C75.3345 25.9489 76.227 26.1832 76.9893 26.652C77.7517 27.1207 78.3435 27.7789 78.7649 28.6264C79.1863 29.474 79.397 30.4635 79.397 31.5952C79.397 32.7221 79.1863 33.7069 78.7649 34.5497C78.3435 35.3925 77.7517 36.0483 76.9893 36.517C76.227 36.9858 75.3345 37.2202 74.3118 37.2202ZM74.3189 35.4375C74.9818 35.4375 75.531 35.2623 75.9666 34.9119C76.4022 34.5616 76.7242 34.0952 76.9325 33.5128C77.1456 32.9304 77.2521 32.2888 77.2521 31.5881C77.2521 30.892 77.1456 30.2528 76.9325 29.6705C76.7242 29.0833 76.4022 28.6122 75.9666 28.2571C75.531 27.902 74.9818 27.7244 74.3189 27.7244C73.6513 27.7244 73.0973 27.902 72.657 28.2571C72.2214 28.6122 71.897 29.0833 71.6839 29.6705C71.4756 30.2528 71.3714 30.892 71.3714 31.5881C71.3714 32.2888 71.4756 32.9304 71.6839 33.5128C71.897 34.0952 72.2214 34.5616 72.657 34.9119C73.0973 35.2623 73.6513 35.4375 74.3189 35.4375ZM86.3413 41.3182C85.4748 41.3182 84.729 41.2045 84.104 40.9773C83.4838 40.75 82.9772 40.4493 82.5842 40.0753C82.1912 39.7012 81.8976 39.2917 81.7035 38.8466L83.5288 38.0938C83.6566 38.3021 83.8271 38.5223 84.0401 38.7543C84.2579 38.991 84.5515 39.1922 84.9208 39.358C85.2949 39.5237 85.7754 39.6065 86.3626 39.6065C87.1675 39.6065 87.8327 39.41 88.3583 39.017C88.8839 38.6288 89.1467 38.0085 89.1467 37.1562V35.0114H89.0117C88.8839 35.2434 88.6992 35.5014 88.4577 35.7855C88.221 36.0696 87.8943 36.3158 87.4776 36.5241C87.061 36.7325 86.5188 36.8366 85.8512 36.8366C84.9895 36.8366 84.2129 36.6354 83.5217 36.233C82.8351 35.8258 82.2906 35.2268 81.8881 34.4361C81.4904 33.6406 81.2915 32.6629 81.2915 31.5028C81.2915 30.3428 81.488 29.3485 81.881 28.5199C82.2788 27.6913 82.8233 27.0568 83.5146 26.6165C84.2058 26.1714 84.9895 25.9489 85.8654 25.9489C86.5425 25.9489 87.0894 26.0625 87.506 26.2898C87.9227 26.5123 88.247 26.7727 88.479 27.071C88.7158 27.3693 88.8981 27.6321 89.0259 27.8594H89.1822V26.0909H91.2631V37.2415C91.2631 38.179 91.0453 38.9484 90.6097 39.5497C90.1741 40.151 89.5846 40.5961 88.8413 40.8849C88.1026 41.1738 87.2693 41.3182 86.3413 41.3182ZM86.32 35.0753C86.9308 35.0753 87.4469 34.9332 87.8683 34.6491C88.2944 34.3603 88.6164 33.9484 88.8342 33.4134C89.0567 32.8736 89.168 32.2273 89.168 31.4744C89.168 30.7405 89.0591 30.0942 88.8413 29.5355C88.6235 28.9768 88.3039 28.5412 87.8825 28.2287C87.4611 27.9115 86.9402 27.7528 86.32 27.7528C85.6808 27.7528 85.1481 27.9186 84.7219 28.25C84.2958 28.5767 83.9738 29.0218 83.756 29.5852C83.543 30.1487 83.4364 30.7784 83.4364 31.4744C83.4364 32.1894 83.5453 32.8168 83.7631 33.3565C83.9809 33.8963 84.3029 34.3177 84.729 34.6207C85.1599 34.9238 85.6902 35.0753 86.32 35.0753ZM101.769 22.4545V37H99.5746V22.4545H101.769ZM106.918 30.5227V37H104.795V26.0909H106.833V27.8665H106.968C107.219 27.2888 107.612 26.8248 108.147 26.4744C108.687 26.1241 109.366 25.9489 110.185 25.9489C110.929 25.9489 111.58 26.1051 112.138 26.4176C112.697 26.7254 113.13 27.1847 113.438 27.7955C113.746 28.4062 113.9 29.1615 113.9 30.0611V37H111.776V30.3168C111.776 29.526 111.57 28.9081 111.158 28.4631C110.746 28.0133 110.181 27.7884 109.461 27.7884C108.969 27.7884 108.531 27.8949 108.147 28.108C107.768 28.321 107.468 28.6335 107.245 29.0455C107.027 29.4527 106.918 29.9451 106.918 30.5227ZM124.406 37L121.196 26.0909H123.39L125.528 34.1023H125.635L127.779 26.0909H129.974L132.105 34.0668H132.211L134.335 26.0909H136.529L133.326 37H131.16L128.944 29.1236H128.781L126.565 37H124.406ZM138.545 37V26.0909H140.668V37H138.545ZM139.617 24.4077C139.248 24.4077 138.931 24.2846 138.665 24.0384C138.405 23.7874 138.275 23.4891 138.275 23.1435C138.275 22.7931 138.405 22.4948 138.665 22.2486C138.931 21.9976 139.248 21.8722 139.617 21.8722C139.987 21.8722 140.301 21.9976 140.562 22.2486C140.827 22.4948 140.96 22.7931 140.96 23.1435C140.96 23.4891 140.827 23.7874 140.562 24.0384C140.301 24.2846 139.987 24.4077 139.617 24.4077ZM148.618 26.0909V27.7955H142.659V26.0909H148.618ZM144.257 23.4773H146.38V33.7969C146.38 34.2088 146.442 34.5189 146.565 34.7273C146.688 34.9309 146.847 35.0705 147.041 35.1463C147.24 35.2173 147.455 35.2528 147.687 35.2528C147.858 35.2528 148.007 35.241 148.135 35.2173C148.262 35.1937 148.362 35.1747 148.433 35.1605L148.816 36.9148C148.693 36.9621 148.518 37.0095 148.291 37.0568C148.064 37.1089 147.779 37.1373 147.439 37.142C146.88 37.1515 146.359 37.0521 145.876 36.8438C145.393 36.6354 145.002 36.3134 144.704 35.8778C144.406 35.4422 144.257 34.8954 144.257 34.2372V23.4773ZM153.325 30.5227V37H151.201V22.4545H153.296V27.8665H153.431C153.687 27.2794 154.077 26.813 154.603 26.4673C155.129 26.1217 155.815 25.9489 156.663 25.9489C157.411 25.9489 158.064 26.1027 158.623 26.4105C159.186 26.7183 159.622 27.1776 159.93 27.7884C160.242 28.3944 160.398 29.152 160.398 30.0611V37H158.275V30.3168C158.275 29.5166 158.069 28.8963 157.657 28.456C157.245 28.0109 156.672 27.7884 155.938 27.7884C155.436 27.7884 154.987 27.8949 154.589 28.108C154.196 28.321 153.886 28.6335 153.658 29.0455C153.436 29.4527 153.325 29.9451 153.325 30.5227ZM178.539 27.0497C178.402 26.6188 178.217 26.233 177.985 25.892C177.758 25.5464 177.486 25.2528 177.169 25.0114C176.851 24.7652 176.489 24.5781 176.082 24.4503C175.68 24.3224 175.237 24.2585 174.754 24.2585C173.935 24.2585 173.196 24.4692 172.538 24.8906C171.88 25.312 171.359 25.9299 170.975 26.7443C170.597 27.554 170.407 28.5459 170.407 29.7202C170.407 30.8991 170.599 31.8958 170.983 32.7102C171.366 33.5246 171.892 34.1425 172.559 34.5639C173.227 34.9853 173.987 35.196 174.839 35.196C175.63 35.196 176.319 35.035 176.906 34.7131C177.498 34.3911 177.955 33.9366 178.277 33.3494C178.603 32.7576 178.767 32.0616 178.767 31.2614L179.335 31.3679H175.173V29.5568H180.89V31.2116C180.89 32.4332 180.63 33.4938 180.109 34.3935C179.593 35.2884 178.878 35.9796 177.964 36.4673C177.055 36.955 176.013 37.1989 174.839 37.1989C173.523 37.1989 172.368 36.8958 171.373 36.2898C170.384 35.6837 169.612 34.8243 169.058 33.7116C168.504 32.5942 168.227 31.2685 168.227 29.7344C168.227 28.5743 168.388 27.5327 168.71 26.6094C169.032 25.6861 169.484 24.9025 170.066 24.2585C170.654 23.6098 171.342 23.1151 172.133 22.7741C172.929 22.4285 173.797 22.2557 174.74 22.2557C175.526 22.2557 176.257 22.3717 176.934 22.6037C177.616 22.8357 178.222 23.1648 178.752 23.5909C179.288 24.017 179.73 24.5237 180.081 25.1108C180.431 25.6932 180.668 26.3395 180.791 27.0497H178.539ZM188.101 37.2202C187.078 37.2202 186.186 36.9858 185.423 36.517C184.661 36.0483 184.069 35.3925 183.648 34.5497C183.226 33.7069 183.016 32.7221 183.016 31.5952C183.016 30.4635 183.226 29.474 183.648 28.6264C184.069 27.7789 184.661 27.1207 185.423 26.652C186.186 26.1832 187.078 25.9489 188.101 25.9489C189.124 25.9489 190.016 26.1832 190.778 26.652C191.541 27.1207 192.133 27.7789 192.554 28.6264C192.975 29.474 193.186 30.4635 193.186 31.5952C193.186 32.7221 192.975 33.7069 192.554 34.5497C192.133 35.3925 191.541 36.0483 190.778 36.517C190.016 36.9858 189.124 37.2202 188.101 37.2202ZM188.108 35.4375C188.771 35.4375 189.32 35.2623 189.756 34.9119C190.191 34.5616 190.513 34.0952 190.722 33.5128C190.935 32.9304 191.041 32.2888 191.041 31.5881C191.041 30.892 190.935 30.2528 190.722 29.6705C190.513 29.0833 190.191 28.6122 189.756 28.2571C189.32 27.902 188.771 27.7244 188.108 27.7244C187.44 27.7244 186.886 27.902 186.446 28.2571C186.01 28.6122 185.686 29.0833 185.473 29.6705C185.265 30.2528 185.161 30.892 185.161 31.5881C185.161 32.2888 185.265 32.9304 185.473 33.5128C185.686 34.0952 186.01 34.5616 186.446 34.9119C186.886 35.2623 187.44 35.4375 188.108 35.4375ZM200.152 37.2202C199.129 37.2202 198.236 36.9858 197.474 36.517C196.712 36.0483 196.12 35.3925 195.699 34.5497C195.277 33.7069 195.066 32.7221 195.066 31.5952C195.066 30.4635 195.277 29.474 195.699 28.6264C196.12 27.7789 196.712 27.1207 197.474 26.652C198.236 26.1832 199.129 25.9489 200.152 25.9489C201.174 25.9489 202.067 26.1832 202.829 26.652C203.592 27.1207 204.183 27.7789 204.605 28.6264C205.026 29.474 205.237 30.4635 205.237 31.5952C205.237 32.7221 205.026 33.7069 204.605 34.5497C204.183 35.3925 203.592 36.0483 202.829 36.517C202.067 36.9858 201.174 37.2202 200.152 37.2202ZM200.159 35.4375C200.822 35.4375 201.371 35.2623 201.806 34.9119C202.242 34.5616 202.564 34.0952 202.772 33.5128C202.985 32.9304 203.092 32.2888 203.092 31.5881C203.092 30.892 202.985 30.2528 202.772 29.6705C202.564 29.0833 202.242 28.6122 201.806 28.2571C201.371 27.902 200.822 27.7244 200.159 27.7244C199.491 27.7244 198.937 27.902 198.497 28.2571C198.061 28.6122 197.737 29.0833 197.524 29.6705C197.315 30.2528 197.211 30.892 197.211 31.5881C197.211 32.2888 197.315 32.9304 197.524 33.5128C197.737 34.0952 198.061 34.5616 198.497 34.9119C198.937 35.2623 199.491 35.4375 200.159 35.4375ZM212.181 41.3182C211.315 41.3182 210.569 41.2045 209.944 40.9773C209.324 40.75 208.817 40.4493 208.424 40.0753C208.031 39.7012 207.737 39.2917 207.543 38.8466L209.369 38.0938C209.496 38.3021 209.667 38.5223 209.88 38.7543C210.098 38.991 210.391 39.1922 210.761 39.358C211.135 39.5237 211.615 39.6065 212.202 39.6065C213.007 39.6065 213.673 39.41 214.198 39.017C214.724 38.6288 214.987 38.0085 214.987 37.1562V35.0114H214.852C214.724 35.2434 214.539 35.5014 214.298 35.7855C214.061 36.0696 213.734 36.3158 213.317 36.5241C212.901 36.7325 212.359 36.8366 211.691 36.8366C210.829 36.8366 210.053 36.6354 209.362 36.233C208.675 35.8258 208.13 35.2268 207.728 34.4361C207.33 33.6406 207.131 32.6629 207.131 31.5028C207.131 30.3428 207.328 29.3485 207.721 28.5199C208.119 27.6913 208.663 27.0568 209.354 26.6165C210.046 26.1714 210.829 25.9489 211.705 25.9489C212.382 25.9489 212.929 26.0625 213.346 26.2898C213.763 26.5123 214.087 26.7727 214.319 27.071C214.556 27.3693 214.738 27.6321 214.866 27.8594H215.022V26.0909H217.103V37.2415C217.103 38.179 216.885 38.9484 216.45 39.5497C216.014 40.151 215.424 40.5961 214.681 40.8849C213.942 41.1738 213.109 41.3182 212.181 41.3182ZM212.16 35.0753C212.771 35.0753 213.287 34.9332 213.708 34.6491C214.134 34.3603 214.456 33.9484 214.674 33.4134C214.897 32.8736 215.008 32.2273 215.008 31.4744C215.008 30.7405 214.899 30.0942 214.681 29.5355C214.463 28.9768 214.144 28.5412 213.722 28.2287C213.301 27.9115 212.78 27.7528 212.16 27.7528C211.521 27.7528 210.988 27.9186 210.562 28.25C210.136 28.5767 209.814 29.0218 209.596 29.5852C209.383 30.1487 209.276 30.7784 209.276 31.4744C209.276 32.1894 209.385 32.8168 209.603 33.3565C209.821 33.8963 210.143 34.3177 210.569 34.6207C211 34.9238 211.53 35.0753 212.16 35.0753ZM222.075 22.4545V37H219.951V22.4545H222.075ZM229.633 37.2202C228.558 37.2202 227.633 36.9905 226.856 36.5312C226.084 36.0672 225.488 35.4162 225.066 34.5781C224.65 33.7353 224.441 32.7481 224.441 31.6165C224.441 30.4991 224.65 29.5142 225.066 28.6619C225.488 27.8097 226.075 27.1444 226.828 26.6662C227.585 26.188 228.471 25.9489 229.484 25.9489C230.1 25.9489 230.696 26.0507 231.274 26.2543C231.851 26.4579 232.37 26.7775 232.829 27.2131C233.288 27.6487 233.651 28.2145 233.916 28.9105C234.181 29.6018 234.314 30.4422 234.314 31.4318V32.1847H225.642V30.5938H232.233C232.233 30.035 232.119 29.5402 231.892 29.1094C231.664 28.6738 231.345 28.3305 230.933 28.0795C230.526 27.8286 230.047 27.7031 229.498 27.7031C228.902 27.7031 228.381 27.8499 227.936 28.1435C227.495 28.4323 227.154 28.8111 226.913 29.2798C226.676 29.7438 226.558 30.2481 226.558 30.7926V32.0355C226.558 32.7647 226.686 33.3849 226.941 33.8963C227.202 34.4077 227.564 34.7983 228.028 35.0682C228.492 35.3333 229.034 35.4659 229.654 35.4659C230.057 35.4659 230.424 35.4091 230.755 35.2955C231.087 35.1771 231.373 35.0019 231.615 34.7699C231.856 34.5379 232.041 34.2514 232.169 33.9105L234.179 34.2727C234.018 34.8646 233.729 35.383 233.312 35.8281C232.9 36.2685 232.382 36.6117 231.757 36.858C231.136 37.0994 230.429 37.2202 229.633 37.2202Z" fill="black" fill-opacity="0.54"/>
</g>
<defs>
<filter id="filter0_dd_911_292" x="0" y="0" width="301" height="62" filterUnits="userSpaceOnUse" color-interpolation-filters="sRGB">
<feFlood flood-opacity="0" result="BackgroundImageFix"/>
<feColorMatrix in="SourceAlpha" type="matrix" values="0 0 0 0 0 0 0 0 0 0 0 0 0 0 0 0 0 0 127 0" result="hardAlpha"/>
<feOffset dy="2"/>
<feGaussianBlur stdDeviation="1.5"/>
<feColorMatrix type="matrix" values="0 0 0 0 0 0 0 0 0 0 0 0 0 0 0 0 0 0 0.168 0"/>
<feBlend mode="normal" in2="BackgroundImageFix" result="effect1_dropShadow_911_292"/>
<feColorMatrix in="SourceAlpha" type="matrix" values="0 0 0 0 0 0 0 0 0 0 0 0 0 0 0 0 0 0 127 0" result="hardAlpha"/>
<feOffset/>
<feGaussianBlur stdDeviation="1.5"/>
<feColorMatrix type="matrix" values="0 0 0 0 0 0 0 0 0 0 0 0 0 0 0 0 0 0 0.084 0"/>
<feBlend mode="normal" in2="effect1_dropShadow_911_292" result="effect2_dropShadow_911_292"/>
<feBlend mode="normal" in="SourceGraphic" in2="effect2_dropShadow_911_292" result="shape"/>
</filter>
</defs>
</svg>
