<svg width="302" height="56" viewBox="0 0 302 56" fill="none" xmlns="http://www.w3.org/2000/svg">
<g filter="url(#filter0_d_913_301)">
<rect x="4" width="294" height="48" rx="20" fill="#222222"/>
<path d="M127.69 31.3158V18.9522H129.93V29.4383H135.375V31.3158H127.69ZM141.267 31.4969C140.362 31.4969 139.577 31.2977 138.913 30.8992C138.249 30.5008 137.734 29.9434 137.367 29.227C137.005 28.5106 136.824 27.6735 136.824 26.7157C136.824 25.7578 137.005 24.9187 137.367 24.1983C137.734 23.4778 138.249 22.9184 138.913 22.52C139.577 22.1215 140.362 21.9223 141.267 21.9223C142.173 21.9223 142.958 22.1215 143.622 22.52C144.286 22.9184 144.799 23.4778 145.161 24.1983C145.527 24.9187 145.71 25.7578 145.71 26.7157C145.71 27.6735 145.527 28.5106 145.161 29.227C144.799 29.9434 144.286 30.5008 143.622 30.8992C142.958 31.2977 142.173 31.4969 141.267 31.4969ZM141.279 29.7462C141.77 29.7462 142.181 29.6114 142.511 29.3417C142.841 29.068 143.086 28.7018 143.247 28.243C143.412 27.7842 143.495 27.2731 143.495 26.7096C143.495 26.1421 143.412 25.629 143.247 25.1702C143.086 24.7074 142.841 24.3391 142.511 24.0654C142.181 23.7918 141.77 23.6549 141.279 23.6549C140.776 23.6549 140.358 23.7918 140.024 24.0654C139.694 24.3391 139.446 24.7074 139.281 25.1702C139.12 25.629 139.04 26.1421 139.04 26.7096C139.04 27.2731 139.12 27.7842 139.281 28.243C139.446 28.7018 139.694 29.068 140.024 29.3417C140.358 29.6114 140.776 29.7462 141.279 29.7462ZM151.598 34.9863C150.813 34.9863 150.139 34.8796 149.576 34.6663C149.012 34.457 148.559 34.1753 148.217 33.8211C147.875 33.467 147.638 33.0746 147.505 32.6439L149.473 32.167C149.562 32.3481 149.69 32.5272 149.859 32.7043C150.028 32.8854 150.256 33.0343 150.542 33.151C150.831 33.2718 151.196 33.3321 151.634 33.3321C152.254 33.3321 152.767 33.1812 153.174 32.8794C153.58 32.5815 153.783 32.0905 153.783 31.4063V29.6496H153.675C153.562 29.875 153.397 30.1064 153.18 30.3438C152.966 30.5813 152.683 30.7805 152.328 30.9415C151.978 31.1025 151.538 31.183 151.006 31.183C150.294 31.183 149.648 31.016 149.069 30.6819C148.493 30.3438 148.034 29.8408 147.692 29.1727C147.354 28.5006 147.185 27.6594 147.185 26.6492C147.185 25.631 147.354 24.7718 147.692 24.0715C148.034 23.3672 148.495 22.8339 149.075 22.4717C149.654 22.1055 150.3 21.9223 151.012 21.9223C151.556 21.9223 152.002 22.0149 152.353 22.2C152.707 22.3811 152.988 22.6005 153.198 22.8581C153.407 23.1116 153.566 23.3511 153.675 23.5764H153.795V22.0431H155.951V31.4667C155.951 32.2596 155.761 32.9156 155.383 33.4348C155.005 33.9539 154.488 34.3423 153.832 34.5999C153.176 34.8575 152.431 34.9863 151.598 34.9863ZM151.616 29.4685C152.079 29.4685 152.473 29.3558 152.799 29.1304C153.125 28.905 153.373 28.5811 153.542 28.1585C153.711 27.7359 153.795 27.2288 153.795 26.6372C153.795 26.0536 153.711 25.5425 153.542 25.1038C153.377 24.6651 153.131 24.325 152.805 24.0836C152.483 23.838 152.087 23.7153 151.616 23.7153C151.129 23.7153 150.723 23.8421 150.397 24.0956C150.071 24.3492 149.825 24.6973 149.66 25.14C149.495 25.5787 149.413 26.0778 149.413 26.6372C149.413 27.2046 149.495 27.7017 149.66 28.1283C149.829 28.5509 150.077 28.8809 150.403 29.1184C150.733 29.3518 151.137 29.4685 151.616 29.4685ZM164.743 18.9522V31.3158H162.504V18.9522H164.743ZM169.258 25.8826V31.3158H167.072V22.0431H169.161V23.6187H169.27C169.483 23.0995 169.823 22.687 170.29 22.3811C170.761 22.0753 171.342 21.9223 172.034 21.9223C172.674 21.9223 173.232 22.0592 173.707 22.3328C174.186 22.6065 174.556 23.0029 174.818 23.5221C175.083 24.0413 175.214 24.6711 175.21 25.4117V31.3158H173.025V25.7497C173.025 25.13 172.864 24.645 172.542 24.2948C172.224 23.9447 171.783 23.7696 171.22 23.7696C170.837 23.7696 170.497 23.8541 170.199 24.0232C169.905 24.1882 169.674 24.4277 169.505 24.7416C169.34 25.0555 169.258 25.4358 169.258 25.8826Z" fill="white"/>
</g>
<defs>
<filter id="filter0_d_913_301" x="0" y="0" width="302" height="56" filterUnits="userSpaceOnUse" color-interpolation-filters="sRGB">
<feFlood flood-opacity="0" result="BackgroundImageFix"/>
<feColorMatrix in="SourceAlpha" type="matrix" values="0 0 0 0 0 0 0 0 0 0 0 0 0 0 0 0 0 0 127 0" result="hardAlpha"/>
<feOffset dy="4"/>
<feGaussianBlur stdDeviation="2"/>
<feComposite in2="hardAlpha" operator="out"/>
<feColorMatrix type="matrix" values="0 0 0 0 0 0 0 0 0 0 0 0 0 0 0 0 0 0 0.25 0"/>
<feBlend mode="normal" in2="BackgroundImageFix" result="effect1_dropShadow_913_301"/>
<feBlend mode="normal" in="SourceGraphic" in2="effect1_dropShadow_913_301" result="shape"/>
</filter>
</defs>
</svg>