<svg width="294" height="48" viewBox="0 0 294 48" fill="none" xmlns="http://www.w3.org/2000/svg">
<rect x="0.5" y="0.5" width="293" height="47" rx="19.5" fill="white" stroke="black"/>
<path d="M123.445 22.351C123.389 21.8237 123.151 21.4132 122.733 21.1194C122.318 20.8256 121.779 20.6787 121.115 20.6787C120.648 20.6787 120.247 20.7492 119.913 20.89C119.579 21.0309 119.324 21.222 119.147 21.4635C118.97 21.705 118.879 21.9807 118.875 22.2906C118.875 22.5482 118.933 22.7715 119.05 22.9607C119.171 23.1498 119.334 23.3108 119.539 23.4436C119.744 23.5724 119.972 23.6811 120.221 23.7696C120.471 23.8582 120.722 23.9326 120.976 23.993L122.135 24.2828C122.602 24.3914 123.051 24.5383 123.481 24.7235C123.916 24.9086 124.304 25.142 124.646 25.4238C124.992 25.7055 125.266 26.0456 125.467 26.444C125.669 26.8424 125.769 27.3093 125.769 27.8446C125.769 28.569 125.584 29.2069 125.214 29.7583C124.844 30.3056 124.308 30.7342 123.608 31.0441C122.912 31.35 122.069 31.5029 121.079 31.5029C120.117 31.5029 119.282 31.354 118.573 31.0562C117.869 30.7584 117.318 30.3237 116.919 29.7522C116.525 29.1807 116.311 28.4845 116.279 27.6635H118.483C118.515 28.0941 118.648 28.4523 118.881 28.738C119.115 29.0238 119.418 29.2371 119.793 29.3779C120.171 29.5188 120.594 29.5892 121.06 29.5892C121.547 29.5892 121.974 29.5168 122.34 29.3719C122.711 29.223 123 29.0177 123.21 28.7561C123.419 28.4905 123.526 28.1806 123.53 27.8264C123.526 27.5045 123.431 27.2389 123.246 27.0296C123.061 26.8163 122.801 26.6392 122.467 26.4983C122.137 26.3534 121.751 26.2246 121.308 26.112L119.901 25.7497C118.883 25.4881 118.078 25.0917 117.487 24.5605C116.899 24.0252 116.605 23.3148 116.605 22.4294C116.605 21.701 116.802 21.0631 117.197 20.5157C117.595 19.9684 118.137 19.5438 118.821 19.2419C119.505 18.9361 120.28 18.7831 121.145 18.7831C122.022 18.7831 122.791 18.9361 123.451 19.2419C124.115 19.5438 124.636 19.9644 125.015 20.5037C125.393 21.0389 125.588 21.6547 125.6 22.351H123.445ZM127.669 31.3158V22.0431H129.855V31.3158H127.669ZM128.768 20.727C128.422 20.727 128.124 20.6123 127.875 20.3829C127.625 20.1495 127.5 19.8698 127.5 19.5438C127.5 19.2138 127.625 18.934 127.875 18.7046C128.124 18.4712 128.422 18.3545 128.768 18.3545C129.118 18.3545 129.416 18.4712 129.662 18.7046C129.911 18.934 130.036 19.2138 130.036 19.5438C130.036 19.8698 129.911 20.1495 129.662 20.3829C129.416 20.6123 129.118 20.727 128.768 20.727ZM136.135 34.9863C135.35 34.9863 134.676 34.8796 134.112 34.6663C133.549 34.457 133.096 34.1753 132.754 33.8211C132.412 33.467 132.174 33.0746 132.042 32.6439L134.01 32.167C134.098 32.3481 134.227 32.5272 134.396 32.7043C134.565 32.8854 134.792 33.0343 135.078 33.151C135.368 33.2718 135.732 33.3321 136.171 33.3321C136.791 33.3321 137.304 33.1812 137.71 32.8794C138.117 32.5815 138.32 32.0905 138.32 31.4063V29.6496H138.211C138.099 29.875 137.934 30.1064 137.716 30.3438C137.503 30.5813 137.219 30.7805 136.865 30.9415C136.515 31.1025 136.074 31.183 135.543 31.183C134.831 31.183 134.185 31.016 133.605 30.6819C133.03 30.3438 132.571 29.8408 132.229 29.1727C131.891 28.5006 131.722 27.6594 131.722 26.6492C131.722 25.631 131.891 24.7718 132.229 24.0715C132.571 23.3672 133.032 22.8339 133.611 22.4717C134.191 22.1055 134.837 21.9223 135.549 21.9223C136.092 21.9223 136.539 22.0149 136.889 22.2C137.243 22.3811 137.525 22.6005 137.734 22.8581C137.944 23.1116 138.103 23.3511 138.211 23.5764H138.332V22.0431H140.487V31.4667C140.487 32.2596 140.298 32.9156 139.92 33.4348C139.542 33.9539 139.024 34.3423 138.368 34.5999C137.712 34.8575 136.968 34.9863 136.135 34.9863ZM136.153 29.4685C136.616 29.4685 137.01 29.3558 137.336 29.1304C137.662 28.905 137.91 28.5811 138.079 28.1585C138.248 27.7359 138.332 27.2288 138.332 26.6372C138.332 26.0536 138.248 25.5425 138.079 25.1038C137.914 24.6651 137.668 24.325 137.342 24.0836C137.02 23.838 136.624 23.7153 136.153 23.7153C135.666 23.7153 135.259 23.8421 134.933 24.0956C134.607 24.3492 134.362 24.6973 134.197 25.14C134.032 25.5787 133.949 26.0778 133.949 26.6372C133.949 27.2046 134.032 27.7017 134.197 28.1283C134.366 28.5509 134.613 28.8809 134.939 29.1184C135.269 29.3518 135.674 29.4685 136.153 29.4685ZM144.912 25.8826V31.3158H142.727V22.0431H144.816V23.6187H144.924C145.138 23.0995 145.478 22.687 145.945 22.3811C146.416 22.0753 146.997 21.9223 147.689 21.9223C148.329 21.9223 148.887 22.0592 149.362 22.3328C149.841 22.6065 150.211 23.0029 150.472 23.5221C150.738 24.0413 150.869 24.6711 150.865 25.4117V31.3158H148.679V25.7497C148.679 25.13 148.518 24.645 148.196 24.2948C147.879 23.9447 147.438 23.7696 146.874 23.7696C146.492 23.7696 146.152 23.8541 145.854 24.0232C145.56 24.1882 145.329 24.4277 145.16 24.7416C144.995 25.0555 144.912 25.4358 144.912 25.8826ZM165.193 18.9522H167.433V27.0296C167.433 27.915 167.224 28.6938 166.805 29.3659C166.391 30.038 165.807 30.5632 165.055 30.9415C164.302 31.3158 163.423 31.5029 162.416 31.5029C161.406 31.5029 160.525 31.3158 159.772 30.9415C159.02 30.5632 158.436 30.038 158.022 29.3659C157.607 28.6938 157.4 27.915 157.4 27.0296V18.9522H159.639V26.8424C159.639 27.3576 159.752 27.8164 159.978 28.2188C160.207 28.6213 160.529 28.9372 160.943 29.1666C161.358 29.392 161.849 29.5047 162.416 29.5047C162.984 29.5047 163.475 29.392 163.889 29.1666C164.308 28.9372 164.63 28.6213 164.855 28.2188C165.081 27.8164 165.193 27.3576 165.193 26.8424V18.9522ZM169.771 34.7931V22.0431H171.92V23.5764H172.047C172.16 23.3511 172.319 23.1116 172.524 22.8581C172.729 22.6005 173.007 22.3811 173.357 22.2C173.707 22.0149 174.154 21.9223 174.697 21.9223C175.413 21.9223 176.059 22.1055 176.635 22.4717C177.214 22.8339 177.673 23.3712 178.011 24.0836C178.353 24.7919 178.524 25.6612 178.524 26.6915C178.524 27.7097 178.357 28.575 178.023 29.2874C177.689 29.9997 177.235 30.5431 176.659 30.9174C176.084 31.2916 175.432 31.4788 174.703 31.4788C174.172 31.4788 173.731 31.3903 173.381 31.2132C173.031 31.0361 172.749 30.8228 172.536 30.5733C172.327 30.3197 172.164 30.0802 172.047 29.8549H171.956V34.7931H169.771ZM171.914 26.6794C171.914 27.2791 171.999 27.8043 172.168 28.2551C172.341 28.7058 172.588 29.058 172.91 29.3115C173.236 29.5611 173.631 29.6858 174.093 29.6858C174.576 29.6858 174.981 29.557 175.307 29.2995C175.633 29.0379 175.878 28.6817 176.043 28.2309C176.212 27.7761 176.297 27.259 176.297 26.6794C176.297 26.1039 176.214 25.5928 176.049 25.1461C175.884 24.6993 175.639 24.3492 175.313 24.0956C174.987 23.8421 174.58 23.7153 174.093 23.7153C173.627 23.7153 173.23 23.838 172.904 24.0836C172.578 24.3291 172.331 24.6732 172.162 25.1159C171.997 25.5586 171.914 26.0798 171.914 26.6794Z" fill="black"/>
</svg>

